<?xml version="1.0" standalone="no"?>
<!DOCTYPE svg PUBLIC "-//W3C//DTD SVG 20010904//EN"
 "http://www.w3.org/TR/2001/REC-SVG-20010904/DTD/svg10.dtd">
<svg version="1.0" xmlns="http://www.w3.org/2000/svg"
 width="400.000000pt" height="400.000000pt" viewBox="0 0 400.000000 400.000000"
 preserveAspectRatio="xMidYMid meet">
<metadata>
Created by potrace 1.11, written by Peter Selinger 2001-2013
</metadata>
<g transform="translate(0.000000,400.000000) scale(0.100000,-0.100000)"
fill="#000000" stroke="none">
<path d="M0 2000 l0 -2000 2000 0 2000 0 0 2000 0 2000 -2000 0 -2000 0 0
-2000z m1040 852 c0 -4 -18 -25 -41 -47 -22 -21 -45 -49 -50 -62 -13 -36 -12
-526 2 -556 19 -41 48 -47 234 -47 192 0 216 6 237 54 15 36 19 453 5 520 -6
26 -25 56 -59 92 l-51 54 237 0 c142 0 236 -4 236 -9 0 -6 -16 -22 -34 -36
-19 -15 -44 -46 -56 -70 -20 -42 -21 -51 -18 -732 3 -770 -2 -712 74 -776 19
-16 34 -33 34 -38 0 -5 -98 -9 -237 -9 l-237 0 46 47 c25 27 52 59 59 73 18
34 25 392 10 475 -18 99 -20 99 -240 103 -188 3 -189 3 -217 -22 l-29 -24 -3
-266 -3 -266 51 -54 c27 -29 50 -56 50 -59 0 -4 -103 -7 -230 -7 -126 0 -230
3 -230 7 0 4 21 28 46 54 34 35 49 59 55 91 12 62 11 1335 -1 1378 -5 20 -30
55 -55 80 -25 24 -45 48 -45 52 0 4 104 8 230 8 127 0 230 -4 230 -8z m1583
-44 c-72 -76 -68 -35 -71 -650 -2 -378 1 -571 8 -598 14 -53 60 -104 112 -124
53 -22 219 -23 268 -2 49 20 87 52 108 89 15 29 17 83 20 587 2 305 0 570 -3
589 -4 21 -25 53 -56 86 -27 28 -49 55 -49 58 0 4 104 7 230 7 127 0 230 -3
230 -7 0 -3 -22 -30 -50 -59 l-50 -53 0 -568 c0 -348 -4 -593 -11 -633 -27
-166 -162 -303 -341 -345 -74 -17 -220 -19 -304 -4 -128 23 -267 128 -325 245
l-24 49 -5 620 c-4 448 -8 626 -17 640 -6 11 -30 38 -52 60 -23 21 -41 43 -41
47 0 4 104 8 232 8 l232 0 -41 -42z m-1252 -1964 c11 -14 5 -34 -12 -34 -5 0
-9 7 -9 15 0 18 -26 20 -36 3 -4 -7 6 -22 25 -39 25 -21 32 -33 29 -55 -2 -23
-9 -30 -30 -32 -18 -2 -30 3 -37 16 -13 25 -2 37 15 14 10 -13 15 -14 25 -5 9
9 5 20 -20 48 -35 40 -37 51 -15 76 16 18 46 15 65 -7z m60 11 c3 -35 5 -39
15 -42 7 -2 17 10 23 27 6 18 15 29 21 25 8 -5 6 -14 -4 -31 -9 -13 -16 -32
-16 -43 0 -11 -4 -22 -8 -25 -5 -3 -7 -19 -4 -36 2 -18 0 -30 -7 -30 -6 0 -11
13 -11 29 0 16 -7 48 -15 71 -8 23 -15 49 -15 56 0 19 20 18 21 -1z m178 -1
c2 -2 6 -34 8 -70 1 -36 5 -69 8 -75 4 -5 -1 -9 -9 -9 -8 0 -16 10 -18 23 -2
12 -10 22 -18 22 -9 0 -15 -9 -14 -22 0 -13 -4 -23 -10 -23 -7 0 -11 31 -11
85 l0 84 30 -5 c16 -3 31 -7 34 -10z m115 8 c3 -5 8 -31 10 -58 7 -63 10 -76
19 -91 13 -20 -14 -15 -29 5 -13 16 -15 16 -29 -2 -24 -32 -27 -13 -11 68 9
41 16 78 16 81 0 8 18 6 24 -3z m122 0 c13 -9 26 -42 16 -42 -5 0 -14 6 -21
13 -19 19 -42 -18 -36 -61 6 -44 20 -61 37 -44 18 18 27 15 21 -8 -6 -22 -42
-27 -61 -8 -18 18 -15 123 4 142 17 18 24 19 40 8z m94 -73 c0 -62 2 -70 18
-67 14 3 18 16 20 76 2 39 7 72 11 72 11 0 11 -130 0 -150 -11 -23 -56 -23
-69 -1 -11 21 -14 134 -4 144 16 16 24 -9 24 -74z m164 65 c17 -17 20 -27 9
-37 -3 -4 -12 1 -19 11 -10 14 -15 15 -25 5 -10 -11 -7 -20 20 -47 25 -26 31
-39 26 -58 -5 -20 -12 -25 -35 -24 -35 2 -44 10 -36 32 6 16 8 15 21 -2 11
-15 16 -17 26 -7 10 11 7 19 -19 46 -35 37 -41 71 -14 86 23 14 28 14 46 -5z
m124 -3 c2 -6 -7 -11 -22 -11 -21 0 -26 -5 -26 -26 0 -19 4 -25 15 -20 10 4
15 -1 15 -14 0 -11 -6 -19 -12 -17 -7 1 -14 -8 -16 -20 -3 -19 1 -23 22 -23
41 0 30 -17 -11 -18 l-38 -2 3 85 3 85 32 -4 c17 -2 33 -8 35 -15z m212 -34
c14 -45 24 -41 24 10 1 20 6 38 11 40 6 2 10 -30 10 -82 0 -94 -16 -115 -35
-45 -15 57 -30 60 -30 6 0 -25 -5 -46 -10 -46 -10 0 -13 147 -3 163 8 13 19
-3 33 -46z m120 23 c8 -33 30 -38 30 -6 0 24 16 44 26 33 3 -3 -4 -32 -15 -65
-11 -33 -17 -70 -14 -81 4 -15 1 -21 -11 -21 -12 0 -16 9 -16 33 1 17 -3 49
-8 69 -5 20 -7 39 -4 42 3 4 0 6 -6 6 -7 0 -12 5 -12 11 0 20 24 3 30 -21z
m-1654 4 c-6 -15 0 -16 44 -10 46 6 51 5 48 -11 -3 -16 7 -18 85 -21 48 -1 87
-6 87 -10 0 -4 -51 -18 -112 -30 -62 -12 -123 -25 -135 -28 -17 -5 -23 -2 -23
10 0 13 -11 16 -59 16 -54 0 -59 2 -54 20 5 18 -1 19 -78 22 l-84 3 125 26
c155 33 164 34 156 13z m2204 -11 l135 -28 -84 -3 c-77 -3 -83 -4 -78 -22 5
-18 0 -20 -55 -20 -51 0 -59 -2 -54 -16 5 -13 1 -15 -16 -12 -13 3 -76 16
-140 29 -65 13 -118 27 -118 31 0 4 39 9 88 10 77 3 87 5 84 21 -3 16 2 17 48
11 44 -6 50 -5 44 10 -8 20 -13 21 146 -11z m-820 -128 c0 -8 -4 -17 -10 -20
-6 -4 -10 5 -10 20 0 15 4 24 10 20 6 -3 10 -12 10 -20z"/>
<path d="M875 2810 c-3 -5 1 -10 10 -10 9 0 13 5 10 10 -3 6 -8 10 -10 10 -2
0 -7 -4 -10 -10z"/>
<path d="M802 2793 c2 -10 13 -19 26 -21 25 -4 28 3 8 24 -20 19 -38 18 -34
-3z"/>
<path d="M1657 2793 c-10 -9 -8 -43 2 -43 5 0 11 11 13 25 5 24 -2 32 -15 18z"/>
<path d="M1603 2769 c14 -8 22 -8 30 0 8 8 3 11 -18 11 -26 -1 -28 -2 -12 -11z"/>
<path d="M770 2735 c0 -14 4 -25 9 -25 5 0 8 11 7 25 -1 33 -16 33 -16 0z"/>
<path d="M850 2745 c0 -17 9 -19 28 -6 11 7 10 10 -3 15 -23 9 -25 8 -25 -9z"/>
<path d="M1529 2744 c-6 -7 -8 -18 -4 -24 3 -5 -1 -10 -9 -10 -9 0 -16 -5 -16
-11 0 -5 5 -7 10 -4 6 3 13 -1 16 -9 3 -9 14 -16 23 -17 11 0 9 -3 -6 -9 -25
-10 -30 -25 -10 -34 10 -5 10 -7 0 -12 -7 -3 -13 -17 -13 -30 0 -17 6 -24 19
-24 11 0 23 -5 26 -10 4 -6 15 -8 26 -5 15 5 18 3 13 -12 -6 -17 -6 -17 10 -2
15 14 16 22 7 56 -11 42 -5 107 10 98 4 -3 10 -1 14 5 6 9 -8 15 -29 11 -5 -1
-6 7 -3 19 3 11 1 23 -5 26 -19 12 -69 10 -79 -2z m46 -45 c-8 -12 -35 -12
-35 0 0 11 22 20 33 14 4 -2 5 -9 2 -14z"/>
<path d="M820 2690 c-9 -16 -8 -20 5 -20 8 0 15 9 15 20 0 11 -2 20 -5 20 -2
0 -9 -9 -15 -20z"/>
<path d="M860 2633 c0 -23 15 -39 24 -25 3 5 -1 18 -9 28 -14 18 -14 18 -15
-3z"/>
<path d="M767 2624 c-8 -8 1 -24 14 -24 5 0 9 7 9 15 0 15 -12 20 -23 9z"/>
<path d="M1491 2613 c-1 -6 -4 -20 -7 -30 -5 -17 -5 -17 6 0 6 10 9 23 6 30
-3 9 -5 9 -5 0z"/>
<path d="M780 2590 c0 -3 -2 -29 -4 -58 -3 -54 7 -74 27 -52 9 10 9 14 0 17
-19 7 -16 20 7 26 22 6 27 27 7 27 -8 0 -19 10 -25 23 -6 12 -11 20 -12 17z"/>
<path d="M1535 2511 c-6 -11 13 -26 22 -17 3 3 13 0 21 -7 13 -10 15 -9 9 6
-4 10 -7 21 -7 23 0 8 -39 4 -45 -5z"/>
<path d="M1490 2485 c7 -9 15 -13 17 -11 7 7 -7 26 -19 26 -6 0 -6 -6 2 -15z"/>
<path d="M824 2471 c-12 -13 -2 -29 16 -24 16 4 19 2 14 -12 -5 -13 -3 -16 7
-13 8 3 13 11 11 18 -1 7 2 18 9 26 9 11 5 13 -21 11 -17 -1 -33 -4 -36 -6z"/>
<path d="M773 2427 c3 -9 2 -29 -2 -45 -7 -23 -6 -29 8 -29 9 0 19 5 23 11 5
6 8 1 8 -11 0 -21 19 -31 33 -17 9 9 -26 69 -52 89 -21 16 -24 16 -18 2z"/>
<path d="M1581 2414 c0 -11 3 -14 6 -6 3 7 2 16 -1 19 -3 4 -6 -2 -5 -13z"/>
<path d="M1512 2398 c5 -15 28 -23 28 -10 0 5 -7 13 -16 16 -10 4 -14 1 -12
-6z"/>
<path d="M845 2390 c-3 -5 -1 -10 4 -10 6 0 11 5 11 10 0 6 -2 10 -4 10 -3 0
-8 -4 -11 -10z"/>
<path d="M1532 2349 c2 -7 10 -15 17 -17 8 -3 12 1 9 9 -2 7 -10 15 -17 17 -8
3 -12 -1 -9 -9z"/>
<path d="M760 2270 c0 -5 5 -10 11 -10 5 0 7 5 4 10 -3 6 -8 10 -11 10 -2 0
-4 -4 -4 -10z"/>
<path d="M845 2250 c3 -5 8 -10 11 -10 2 0 4 5 4 10 0 6 -5 10 -11 10 -5 0 -7
-4 -4 -10z"/>
<path d="M1526 2241 c-8 -12 36 -26 56 -18 7 3 4 6 -7 6 -12 1 -26 6 -32 12
-7 7 -13 8 -17 0z"/>
<path d="M800 2219 c0 -5 5 -7 10 -4 6 3 10 8 10 11 0 2 -4 4 -10 4 -5 0 -10
-5 -10 -11z"/>
<path d="M1528 2193 c7 -3 16 -2 19 1 4 3 -2 6 -13 5 -11 0 -14 -3 -6 -6z"/>
<path d="M844 2164 c3 -9 6 -20 6 -25 0 -5 11 -9 25 -9 19 0 25 5 25 21 0 16
-4 19 -20 14 -11 -4 -20 -2 -20 4 0 6 -5 11 -11 11 -6 0 -8 -7 -5 -16z"/>
<path d="M1460 2129 c0 -5 5 -7 10 -4 6 3 10 8 10 11 0 2 -4 4 -10 4 -5 0 -10
-5 -10 -11z"/>
<path d="M771 2107 c-8 -11 -7 -18 7 -29 26 -23 48 -28 81 -18 17 5 31 6 31 2
0 -4 12 -8 26 -8 23 -2 24 -1 10 15 -9 10 -32 17 -57 18 -27 1 -46 8 -51 18
-11 19 -32 19 -47 2z"/>
<path d="M1538 2098 c-10 -6 -10 -10 2 -18 10 -6 16 -6 19 2 2 6 12 0 22 -13
l19 -24 0 26 c0 20 -6 28 -24 31 -14 3 -31 1 -38 -4z"/>
<path d="M1205 2064 c-6 -2 -9 -20 -7 -39 4 -31 6 -34 20 -23 13 11 15 10 9
-5 -6 -15 -3 -17 13 -12 12 4 20 2 20 -5 0 -6 5 -8 11 -5 6 5 -1 19 -21 38
-17 17 -29 36 -26 44 5 13 0 15 -19 7z"/>
<path d="M760 2050 c0 -5 4 -10 9 -10 5 0 18 -3 28 -7 16 -6 16 -5 4 10 -15
19 -41 23 -41 7z"/>
<path d="M1403 2010 c3 -22 12 -47 22 -56 9 -9 14 -22 11 -29 -2 -7 1 -21 8
-30 11 -15 16 -16 35 -5 19 10 25 9 36 -7 7 -10 11 -21 9 -25 -3 -5 0 -8 5 -8
6 0 11 -6 11 -13 0 -19 33 -47 54 -47 10 0 16 -6 13 -12 -6 -20 -36 -10 -62
20 -22 25 -25 26 -40 11 -16 -15 -15 -18 13 -38 17 -11 35 -21 41 -21 6 0 11
-7 11 -15 0 -8 -4 -15 -10 -15 -5 0 -10 -6 -10 -14 0 -19 43 -26 59 -9 10 11
16 11 27 2 11 -9 13 -4 11 30 -1 26 -7 41 -15 41 -9 0 -11 7 -6 23 3 12 3 19
-1 15 -14 -13 -66 32 -60 52 4 12 -3 24 -22 38 -24 17 -26 22 -13 36 11 15 11
19 -4 34 -16 16 -16 15 -14 -7 2 -13 -3 -26 -9 -28 -7 -3 -13 2 -13 10 0 9
-13 18 -30 22 -34 8 -40 24 -10 32 11 3 20 10 20 15 0 5 -8 7 -19 3 -13 -4
-20 0 -24 15 -10 39 -30 23 -24 -20z"/>
<path d="M976 2028 c3 -4 14 -8 24 -8 10 0 21 4 24 8 3 5 -8 9 -24 9 -16 0
-27 -4 -24 -9z"/>
<path d="M1070 2020 c-6 -10 -17 -17 -24 -14 -8 3 -17 1 -21 -5 -6 -11 6 -15
36 -12 9 1 19 -5 22 -14 8 -19 46 -19 70 -1 17 13 16 16 -16 40 -41 31 -53 32
-67 6z"/>
<path d="M1350 2029 c0 -5 5 -7 10 -4 6 3 10 8 10 11 0 2 -4 4 -10 4 -5 0 -10
-5 -10 -11z"/>
<path d="M832 2018 c-15 -15 -15 -38 -1 -58 8 -12 10 -10 5 10 -3 15 1 31 11
42 18 20 4 25 -15 6z"/>
<path d="M891 2011 c-11 -7 -10 -11 6 -20 22 -11 33 -6 33 16 0 15 -18 17 -39
4z"/>
<path d="M1605 2010 c-3 -5 -2 -10 4 -10 5 0 13 5 16 10 3 6 2 10 -4 10 -5 0
-13 -4 -16 -10z"/>
<path d="M756 1943 c0 -20 6 -28 20 -28 28 0 27 49 -1 53 -17 2 -20 -2 -19
-25z"/>
<path d="M1365 1949 c-4 -6 -5 -12 -2 -15 2 -3 7 2 10 11 7 17 1 20 -8 4z"/>
<path d="M1595 1941 c-3 -5 -1 -12 5 -16 5 -3 10 1 10 9 0 18 -6 21 -15 7z"/>
<path d="M866 1915 c5 -12 -1 -14 -24 -11 -29 3 -30 2 -19 -23 16 -39 25 -47
39 -33 10 10 10 15 -2 22 -13 8 -11 12 8 25 25 18 29 35 7 35 -9 0 -12 -6 -9
-15z"/>
<path d="M785 1870 c3 -5 10 -10 16 -10 5 0 9 5 9 10 0 6 -7 10 -16 10 -8 0
-12 -4 -9 -10z"/>
<path d="M1477 1873 c-4 -3 -7 -12 -7 -20 0 -11 5 -11 20 -3 11 6 20 15 20 20
0 11 -23 13 -33 3z"/>
<path d="M780 1800 c0 -11 7 -20 15 -20 8 0 15 6 15 14 0 8 -7 16 -15 20 -10
4 -15 -1 -15 -14z"/>
<path d="M770 1755 c-7 -9 -10 -18 -7 -22 8 -7 37 15 37 28 0 14 -16 11 -30
-6z"/>
<path d="M778 1706 c-31 -11 -42 -40 -22 -60 8 -8 14 -19 14 -25 0 -6 5 -11
10 -11 6 0 10 9 10 20 0 11 4 20 9 20 15 0 23 -18 11 -25 -5 -3 -10 -11 -10
-17 0 -6 8 -4 18 5 10 10 22 14 25 10 4 -3 7 1 7 10 0 9 -9 21 -19 27 -11 5
-21 20 -23 33 -3 20 -6 22 -30 13z"/>
<path d="M1490 1690 c1 -19 21 -45 41 -52 9 -4 19 -20 21 -37 4 -28 2 -31 -16
-25 -19 6 -20 5 -6 -11 13 -16 12 -20 -13 -39 -32 -26 -35 -46 -7 -46 11 0 20
7 20 15 0 8 2 15 5 15 12 0 55 -33 51 -39 -3 -4 -1 -12 3 -19 5 -9 13 -8 29 4
25 17 30 39 7 31 -8 -4 -17 -2 -20 2 -2 5 4 11 15 14 36 9 8 91 -29 85 -11 -2
-17 5 -19 22 -2 23 -1 24 11 8 21 -27 44 -22 50 10 3 15 3 29 1 31 -2 3 -28 3
-58 2 -46 -2 -56 1 -70 21 -10 14 -16 17 -16 8z m120 -145 c0 -14 -4 -25 -10
-25 -11 0 -14 33 -3 43 11 11 13 8 13 -18z"/>
<path d="M800 1568 c0 -7 -3 -24 -7 -37 -5 -21 -4 -22 14 -12 15 7 19 17 16
36 -5 25 -23 35 -23 13z"/>
<path d="M760 1510 c0 -18 4 -29 10 -25 6 3 10 15 10 25 0 10 -4 22 -10 25 -6
4 -10 -7 -10 -25z"/>
<path d="M815 1500 c-3 -5 -1 -10 4 -10 6 0 11 5 11 10 0 6 -2 10 -4 10 -3 0
-8 -4 -11 -10z"/>
<path d="M1516 1461 c-4 -5 -2 -12 3 -15 5 -4 12 -2 15 3 4 5 2 12 -3 15 -5 4
-12 2 -15 -3z"/>
<path d="M780 1441 c0 -5 9 -11 20 -14 13 -3 20 0 20 9 0 8 -9 14 -20 14 -11
0 -20 -4 -20 -9z"/>
<path d="M855 1430 c-3 -5 -1 -10 4 -10 6 0 11 5 11 10 0 6 -2 10 -4 10 -3 0
-8 -4 -11 -10z"/>
<path d="M1503 1410 c2 -21 6 -26 20 -22 10 3 21 11 24 18 3 9 12 5 30 -14 24
-25 25 -26 19 -4 -5 15 -3 22 5 22 32 0 -11 18 -53 22 -46 5 -47 5 -45 -22z"/>
<path d="M774 1386 c-4 -19 -2 -31 7 -37 23 -14 31 6 15 36 l-15 28 -7 -27z"/>
<path d="M817 1333 c-4 -7 -3 -15 3 -18 8 -5 7 -11 -1 -21 -6 -7 -8 -22 -4
-31 6 -17 7 -17 17 0 5 10 19 22 31 27 22 8 21 8 -4 18 -15 6 -29 16 -31 23
-3 9 -6 10 -11 2z"/>
<path d="M745 1310 c-10 -11 -15 -20 -11 -20 11 0 39 30 34 36 -3 2 -13 -5
-23 -16z"/>
<path d="M2486 2781 c-4 -7 -5 -15 -2 -18 9 -9 19 4 14 18 -4 11 -6 11 -12 0z"/>
<path d="M3138 2779 c-20 -11 -24 -54 -7 -64 16 -11 25 5 9 16 -13 8 -12 11 3
24 11 7 26 11 35 7 15 -5 15 -4 3 11 -16 20 -20 20 -43 6z"/>
<path d="M2460 2740 c0 -5 5 -10 10 -10 6 0 10 5 10 10 0 6 -4 10 -10 10 -5 0
-10 -4 -10 -10z"/>
<path d="M3190 2741 c0 -5 5 -13 10 -16 6 -3 10 -2 10 4 0 5 -4 13 -10 16 -5
3 -10 2 -10 -4z"/>
<path d="M3150 2693 c-24 -9 -30 -26 -13 -38 14 -10 14 -15 -2 -44 -9 -18 -15
-34 -13 -34 2 -1 13 -7 25 -14 19 -11 22 -9 28 14 4 19 9 23 17 15 8 -8 8 -15
-1 -25 -12 -15 -5 -47 10 -47 5 0 12 7 15 15 4 8 13 15 21 15 10 0 13 -10 10
-42 -4 -43 -24 -67 -23 -27 1 12 -3 23 -9 25 -16 5 -46 -44 -47 -76 -1 -17 -5
-30 -10 -30 -4 0 -8 -9 -8 -20 0 -16 7 -20 31 -20 20 0 29 -4 27 -12 -3 -7 -9
-13 -14 -13 -31 -2 -51 -26 -50 -62 l1 -38 51 -1 51 -2 1 33 c2 43 -14 54 -30
21 -14 -32 -30 -34 -26 -3 5 34 17 47 45 47 19 0 24 4 19 16 -3 9 -6 20 -6 26
0 6 -9 8 -20 5 -10 -3 -24 1 -31 9 -9 11 -8 14 7 14 17 0 17 1 -1 14 -18 13
-18 14 3 20 12 4 27 4 34 0 7 -4 10 -4 6 0 -4 5 2 25 13 45 11 20 15 37 9 39
-5 2 -10 26 -10 53 0 28 -4 48 -9 45 -5 -3 -14 1 -21 9 -10 12 -9 15 4 15 21
0 20 10 -3 38 -18 21 -49 27 -81 15z"/>
<path d="M2450 2650 c0 -5 -9 -10 -20 -10 -15 0 -20 -7 -20 -27 0 -20 3 -24
11 -16 9 9 16 9 30 0 24 -15 28 -9 22 31 -5 29 -23 47 -23 22z"/>
<path d="M2411 2558 c1 -7 5 -24 9 -38 7 -22 8 -21 9 13 1 20 -3 37 -9 37 -5
0 -10 -6 -9 -12z"/>
<path d="M2492 2540 c-8 -13 -8 -20 -2 -20 6 0 13 7 17 15 9 24 -1 27 -15 5z"/>
<path d="M3160 2510 c0 -5 5 -10 10 -10 6 0 10 5 10 10 0 6 -4 10 -10 10 -5 0
-10 -4 -10 -10z"/>
<path d="M3120 2494 c0 -12 7 -24 15 -28 19 -7 19 5 0 30 -14 19 -14 19 -15
-2z"/>
<path d="M2444 2469 c-10 -17 13 -36 27 -22 12 12 4 33 -11 33 -5 0 -12 -5
-16 -11z"/>
<path d="M2448 2380 c-5 -36 7 -50 16 -17 8 31 7 47 -3 47 -5 0 -11 -14 -13
-30z"/>
<path d="M3147 2192 c-15 -15 -27 -34 -27 -41 0 -22 29 -43 50 -36 25 8 27 37
3 33 -13 -2 -19 4 -21 22 -2 22 -1 23 9 7 10 -18 11 -18 25 0 35 46 3 58 -39
15z"/>
<path d="M2395 2150 c3 -5 8 -10 11 -10 2 0 4 5 4 10 0 6 -5 10 -11 10 -5 0
-7 -4 -4 -10z"/>
<path d="M2445 2125 c3 -32 12 -42 26 -28 8 8 7 17 -3 32 -17 28 -27 27 -23
-4z"/>
<path d="M3167 2093 c-4 -6 3 -20 14 -31 24 -26 33 -28 20 -4 -22 37 -29 44
-34 35z"/>
<path d="M2416 2082 c-12 -20 11 -40 27 -23 8 9 8 12 0 7 -6 -3 -13 1 -15 11
-3 14 -5 15 -12 5z"/>
<path d="M3207 2026 c-6 -7 -20 -11 -31 -8 -12 3 -17 1 -13 -5 4 -6 0 -16 -8
-23 -9 -8 -12 -22 -8 -42 4 -22 3 -29 -5 -24 -7 4 -14 -3 -18 -19 -8 -34 30
-71 69 -67 17 2 25 8 21 14 -5 7 -1 9 9 5 14 -5 16 -2 11 17 -3 14 -1 27 7 32
9 5 10 2 6 -10 -4 -10 -3 -15 3 -11 11 7 13 35 4 59 -10 26 -32 18 -39 -14 -5
-21 -13 -30 -26 -30 -22 0 -24 -11 -7 -28 9 -9 9 -12 0 -12 -7 0 -12 5 -12 10
0 6 -7 10 -15 10 -22 0 -18 15 8 27 28 13 58 64 40 70 -9 3 -10 9 -1 23 9 14
17 16 35 9 17 -6 23 -5 23 5 0 19 -38 27 -53 12z"/>
<path d="M3126 2004 c-4 -9 -4 -19 -1 -22 2 -3 7 3 11 12 4 9 4 19 1 22 -2 3
-7 -3 -11 -12z"/>
<path d="M2366 2001 c-4 -5 -2 -12 3 -15 5 -4 12 -2 15 3 4 5 2 12 -3 15 -5 4
-12 2 -15 -3z"/>
<path d="M2407 2003 c-4 -3 -7 -11 -7 -17 0 -6 5 -5 12 2 6 6 9 14 7 17 -3 3
-9 2 -12 -2z"/>
<path d="M2450 2001 c0 -6 5 -13 10 -16 6 -3 10 1 10 9 0 9 -4 16 -10 16 -5 0
-10 -4 -10 -9z"/>
<path d="M2376 1944 c-3 -9 -6 -26 -6 -39 0 -28 31 -50 47 -34 7 7 9 3 6 -15
-3 -16 -10 -23 -19 -19 -8 3 -14 1 -14 -5 0 -6 14 -15 30 -21 17 -5 30 -15 30
-22 0 -7 3 -9 8 -5 4 4 8 28 8 52 1 37 -1 42 -12 33 -18 -15 -20 11 -3 28 9 9
7 16 -6 30 -10 10 -22 18 -26 18 -4 0 -11 3 -15 8 -12 11 -21 8 -28 -9z"/>
<path d="M3240 1830 c0 -5 5 -10 10 -10 6 0 10 5 10 10 0 6 -4 10 -10 10 -5 0
-10 -4 -10 -10z"/>
<path d="M3140 1805 c-8 -9 -8 -15 -2 -15 12 0 26 19 19 26 -2 2 -10 -2 -17
-11z"/>
<path d="M3223 1793 c5 -22 -2 -27 -30 -24 -7 1 -13 -3 -13 -10 0 -7 11 -10
28 -7 26 4 28 2 29 -35 2 -38 2 -39 -18 -22 -25 24 -32 15 -18 -21 7 -16 11
-34 10 -40 -3 -21 27 -23 45 -3 15 17 16 25 7 49 -7 18 -8 32 -2 36 15 9 6 66
-11 72 -8 3 -19 10 -23 16 -5 7 -7 2 -4 -11z"/>
<path d="M2390 1780 c0 -5 5 -10 10 -10 6 0 10 5 10 10 0 6 -4 10 -10 10 -5 0
-10 -4 -10 -10z"/>
<path d="M3142 1750 c0 -14 2 -19 5 -12 2 6 2 18 0 25 -3 6 -5 1 -5 -13z"/>
<path d="M2460 1690 c0 -5 5 -10 10 -10 6 0 10 5 10 10 0 6 -4 10 -10 10 -5 0
-10 -4 -10 -10z"/>
<path d="M3145 1610 c-28 -6 -29 -7 -8 -14 36 -12 40 -52 10 -84 -13 -15 -28
-37 -32 -49 -3 -13 -13 -23 -21 -23 -8 0 -14 -4 -14 -10 0 -5 -9 -10 -19 -10
-11 0 -23 -4 -26 -10 -3 -5 -15 -10 -25 -10 -10 0 -22 -4 -25 -10 -8 -12 25
-70 40 -70 5 0 24 23 40 52 29 50 41 60 79 73 15 4 17 8 8 17 -18 18 -14 26
17 33 16 3 35 13 41 20 17 20 8 51 -14 47 -15 -3 -16 0 -6 19 7 12 8 19 2 15
-6 -3 -12 0 -14 7 -2 8 -13 11 -33 7z"/>
<path d="M2385 1580 c3 -5 10 -10 16 -10 5 0 9 5 9 10 0 6 -7 10 -16 10 -8 0
-12 -4 -9 -10z"/>
<path d="M3240 1571 c0 -5 5 -13 10 -16 6 -3 10 -2 10 4 0 5 -4 13 -10 16 -5
3 -10 2 -10 -4z"/>
<path d="M3121 1554 c0 -11 3 -14 6 -6 3 7 2 16 -1 19 -3 4 -6 -2 -5 -13z"/>
<path d="M2385 1550 c-3 -5 -1 -10 4 -10 6 0 11 -9 11 -20 0 -11 -4 -20 -10
-20 -6 0 -5 -10 2 -25 6 -14 20 -25 30 -25 15 0 18 -5 13 -20 -9 -27 -2 -25
32 9 16 15 29 38 29 50 0 23 -14 29 -21 9 -3 -7 -16 -14 -29 -14 -17 -1 -22 3
-19 15 5 20 -32 67 -42 51z"/>
<path d="M2460 1539 c0 -5 5 -7 10 -4 6 3 10 8 10 11 0 2 -4 4 -10 4 -5 0 -10
-5 -10 -11z"/>
<path d="M2540 1441 c0 -6 5 -13 10 -16 6 -3 10 1 10 9 0 9 -4 16 -10 16 -5 0
-10 -4 -10 -9z"/>
<path d="M2503 1413 c-15 -31 -17 -69 -5 -77 15 -9 52 24 52 47 -1 20 -21 57
-31 57 -2 0 -10 -12 -16 -27z"/>
<path d="M2912 1388 c-28 -14 -25 -42 6 -46 12 -2 22 -8 22 -13 0 -5 5 -9 11
-9 8 0 8 5 -1 15 -7 8 -10 25 -6 40 7 27 2 29 -32 13z"/>
<path d="M3135 1390 c3 -5 8 -10 11 -10 2 0 4 5 4 10 0 6 -5 10 -11 10 -5 0
-7 -4 -4 -10z"/>
<path d="M3095 1355 c0 -14 5 -23 10 -22 6 2 10 12 10 22 0 10 -4 20 -10 22
-5 2 -10 -8 -10 -22z"/>
<path d="M2750 1350 c0 -5 5 -10 10 -10 6 0 10 5 10 10 0 6 -4 10 -10 10 -5 0
-10 -4 -10 -10z"/>
<path d="M2817 1332 c-10 -10 -17 -28 -17 -40 0 -13 -6 -22 -15 -22 -8 0 -14
8 -12 18 1 9 -2 17 -8 17 -5 0 -9 -4 -7 -9 2 -5 -3 -13 -10 -17 -9 -6 -5 -11
14 -18 14 -5 29 -14 32 -19 7 -12 56 -3 56 10 0 18 26 36 40 28 15 -9 30 -4
30 9 0 16 -50 61 -68 61 -10 0 -26 -8 -35 -18z m28 -23 c11 -17 -1 -21 -15 -4
-8 9 -8 15 -2 15 6 0 14 -5 17 -11z"/>
<path d="M2600 1325 c0 -9 5 -15 11 -13 6 2 11 8 11 13 0 5 -5 11 -11 13 -6 2
-11 -4 -11 -13z"/>
<path d="M2685 1330 c3 -5 8 -10 11 -10 2 0 4 5 4 10 0 6 -5 10 -11 10 -5 0
-7 -4 -4 -10z"/>
<path d="M2932 1281 c2 -7 7 -12 11 -12 12 1 9 15 -3 20 -7 2 -11 -2 -8 -8z"/>
<path d="M1567 833 c-11 -10 -8 -41 4 -49 16 -9 41 20 33 39 -6 17 -25 22 -37
10z"/>
<path d="M1700 771 c0 -17 5 -31 10 -31 6 0 10 11 10 24 0 14 -4 28 -10 31 -6
4 -10 -7 -10 -24z"/>
</g>
</svg>
